<svg width="181" height="40" viewBox="0 0 181 40" fill="none" xmlns="http://www.w3.org/2000/svg">
<path d="M34.0718 10.3501C27.9828 10.3501 23.0345 15.2804 23.0345 21.3661C23.0345 27.4519 27.9674 32.3821 34.0718 32.3821C40.1607 32.3821 45.0936 27.4519 45.0936 21.3661C45.109 15.2958 40.1607 10.3501 34.0718 10.3501ZM34.0718 26.5891C31.1891 26.5891 28.8615 24.2626 28.8615 21.3815C28.8615 18.5004 31.1891 16.174 34.0718 16.174C36.9544 16.174 39.2821 18.5004 39.2821 21.3815C39.2821 24.2472 36.9544 26.5891 34.0718 26.5891Z" fill="#278f38"/>
<path d="M154.149 20.4252V22.3357C154.18 22.0275 154.196 21.704 154.196 21.3804C154.196 21.0569 154.165 20.7334 154.149 20.4252Z" fill="#278f38"/>
<path d="M69.9865 20.1336V22.6141C70.0327 22.2136 70.0635 21.7976 70.0635 21.3816C70.0481 20.9656 70.0327 20.5496 69.9865 20.1336Z" fill="#278f38"/>
<path d="M64.1937 0.520935V11.6448C62.6522 10.8282 60.8949 10.366 59.0297 10.366C52.9407 10.366 48.0079 15.2962 48.0079 21.382C48.0079 27.4677 52.9407 32.3979 59.0297 32.3979C64.6408 32.3979 69.2653 28.2226 69.9744 22.7994C69.9744 22.7378 69.9898 22.6761 69.9898 22.6145V2.52384L64.1937 0.520935ZM59.0297 26.5895C56.1471 26.5895 53.8194 24.2631 53.8194 21.382C53.8194 18.5009 56.1471 16.1744 59.0297 16.1744C61.6657 16.1744 63.8546 18.1465 64.1937 20.6886C64.2246 20.9197 64.24 21.1354 64.24 21.3665C64.24 21.5977 64.2246 21.8288 64.1937 22.0445C63.8546 24.6174 61.6657 26.5895 59.0297 26.5895Z" fill="#278f38"/>
<path d="M15.9961 24.2476C15.0712 25.6496 13.468 26.5895 11.6491 26.5895C8.76643 26.5895 6.43875 24.263 6.43875 21.3819C6.43875 18.5008 8.76643 16.1743 11.6491 16.1743C13.4526 16.1743 15.0404 17.0834 15.9653 18.47L20.6823 15.065C18.6938 12.2148 15.3795 10.3659 11.6491 10.3659C5.56009 10.3505 0.627258 15.2962 0.627258 21.3819C0.627258 27.4676 5.56009 32.3979 11.6491 32.3979C15.4258 32.3979 18.7554 30.5028 20.744 27.6063L15.9961 24.2476Z" fill="#278f38"/>
<path d="M64.2112 20.69C64.2421 20.9211 64.2575 21.1368 64.2575 21.3679C64.2575 21.599 64.2421 21.8301 64.2112 22.0458V20.69Z" fill="#278f38"/>
<path d="M70.0019 22.6177V22.8026H69.9865C69.9865 22.741 70.0019 22.6793 70.0019 22.6177Z" fill="#278f38"/>
<path d="M104.792 0.705353L98.7805 2.86233V32.0893H104.792V0.705353Z" fill="#278f38"/>
<path d="M84.2174 10.4463C78.1284 10.4463 73.1956 15.3765 73.1956 21.4622C73.1956 27.548 78.1284 32.4782 84.2174 32.4782C87.4083 32.4782 90.2909 31.1224 92.2949 28.95L88.0558 24.9596C87.1 25.9919 85.7435 26.6544 84.2174 26.6544C82.4138 26.6544 80.8261 25.7454 79.9012 24.3588H94.7151C94.7151 24.3588 94.7151 24.3434 94.7151 24.3279H94.8692C95.1159 23.4035 95.2546 22.4483 95.2546 21.4468C95.2546 15.3765 90.3064 10.4463 84.2174 10.4463ZM79.8703 18.612C80.7952 17.1945 82.3984 16.2547 84.2328 16.2547C86.0672 16.2547 87.655 17.1945 88.5799 18.612H79.8703Z" fill="#278f38"/>
<path d="M119.278 10.4463C113.189 10.4463 108.257 15.3765 108.257 21.4622C108.257 27.548 113.189 32.4782 119.278 32.4782C122.469 32.4782 125.352 31.1224 127.356 28.95L123.117 24.9596C122.161 25.9919 120.805 26.6544 119.278 26.6544C117.475 26.6544 115.887 25.7454 114.962 24.3588H129.776C129.776 24.3588 129.776 24.3434 129.776 24.3279H129.93C130.177 23.4035 130.316 22.4483 130.316 21.4468C130.316 15.3765 125.367 10.4463 119.278 10.4463ZM114.931 18.612C115.856 17.1945 117.459 16.2547 119.294 16.2547C121.128 16.2547 122.716 17.1945 123.641 18.612H114.931Z" fill="#278f38"/>
<path d="M148.371 10.1815V11.6605C146.814 10.8286 145.042 10.3509 143.161 10.3509C137.072 10.3509 132.139 15.2812 132.139 21.3669C132.139 27.4527 137.072 32.3829 143.161 32.3829C145.042 32.3829 146.814 31.9053 148.371 31.0733V32.1826H154.152V10.1815H148.371ZM143.161 26.5899C140.278 26.5899 137.951 24.2634 137.951 21.3823C137.951 18.5012 140.278 16.1748 143.161 16.1748C146.044 16.1748 148.371 18.5012 148.371 21.3823C148.371 24.248 146.044 26.5899 143.161 26.5899Z" fill="#278f38"/>
<path d="M169.963 10.3501C163.997 10.3501 159.126 15.0955 158.941 21.0117C158.941 21.135 158.941 21.2583 158.941 21.3815V37.8361L164.86 39.839V31.1495C166.386 31.9507 168.128 32.3975 169.978 32.3975C176.067 32.3975 181 27.4673 181 21.3815C180.985 15.2958 176.052 10.3501 169.963 10.3501ZM169.963 26.5891C167.419 26.5891 165.307 24.771 164.845 22.3676C164.783 22.044 164.752 21.7205 164.752 21.3815C164.752 21.2583 164.752 21.135 164.768 21.0117C164.953 18.3155 167.203 16.174 169.963 16.174C172.845 16.174 175.173 18.5004 175.173 21.3815C175.173 24.2472 172.845 26.5891 169.963 26.5891Z" fill="#278f38"/>
</svg>
